<?xml version="1.0" encoding="UTF-8" standalone="no"?>
<!-- Created with Inkscape (http://www.inkscape.org/) -->

<svg
   xmlns:dc="http://purl.org/dc/elements/1.1/"
   xmlns:cc="http://creativecommons.org/ns#"
   xmlns:rdf="http://www.w3.org/1999/02/22-rdf-syntax-ns#"
   xmlns:svg="http://www.w3.org/2000/svg"
   xmlns="http://www.w3.org/2000/svg"
   xmlns:sodipodi="http://sodipodi.sourceforge.net/DTD/sodipodi-0.dtd"
   xmlns:inkscape="http://www.inkscape.org/namespaces/inkscape"
   width="85mm"
   height="54mm"
   viewBox="0 0 85 54"
   id="svg3515"
   version="1.1"
   inkscape:version="0.91 r13725"
   sodipodi:docname="drawing-svg-i-hate-passwordv4.svg">
  <defs
     id="defs3" />
  <sodipodi:namedview
     id="base"
     pagecolor="#ffffff"
     bordercolor="#666666"
     borderopacity="1.0"
     inkscape:pageopacity="0.0"
     inkscape:pageshadow="2"
     inkscape:zoom="1"
     inkscape:cx="36.5"
     inkscape:cy="90"
     inkscape:document-units="mm"
     inkscape:current-layer="layer1"
     showgrid="false"
     inkscape:window-width="1366"
     inkscape:window-height="746"
     inkscape:window-x="1358"
     inkscape:window-y="-8"
     inkscape:window-maximized="1"
     inkscape:snap-grids="true"
     inkscape:snap-to-guides="true" />
  <metadata
     id="metadata3519">
    <rdf:RDF>
      <cc:Work
         rdf:about="">
        <dc:format>image/svg+xml</dc:format>
        <dc:type
           rdf:resource="http://purl.org/dc/dcmitype/StillImage" />
        <dc:title></dc:title>
      </cc:Work>
    </rdf:RDF>
  </metadata>
  <g
     inkscape:label="Layer 1"
     inkscape:groupmode="layer"
     id="layer1">
    <g
       id="g3404"
       transform="translate(2.54,0)">
      <circle
         r="3.3866665"
         inkscape:transform-center-y="0.63500171"
         inkscape:transform-center-x="2.1166668"
         cy="48.476505"
         cx="10.724444"
         id="path3343"
         style="fill:#000000;fill-opacity:1" />
      <circle
         style="fill:#000000;fill-opacity:1"
         id="circle3390"
         cx="19.513649"
         cy="48.476505"
         inkscape:transform-center-x="2.1166668"
         inkscape:transform-center-y="0.63500171"
         r="3.3866665" />
      <circle
         r="3.3866665"
         inkscape:transform-center-y="0.63500171"
         inkscape:transform-center-x="2.1166668"
         cy="48.476505"
         cx="28.302856"
         id="circle3392"
         style="fill:#000000;fill-opacity:1" />
      <circle
         style="fill:#000000;fill-opacity:1"
         id="circle3394"
         cx="37.092064"
         cy="48.476505"
         inkscape:transform-center-x="2.1166668"
         inkscape:transform-center-y="0.63500171"
         r="3.3866665" />
      <circle
         r="3.3866665"
         inkscape:transform-center-y="0.63500171"
         inkscape:transform-center-x="2.1166668"
         cy="48.476505"
         cx="45.881268"
         id="circle3396"
         style="fill:#000000;fill-opacity:1" />
      <circle
         style="fill:#000000;fill-opacity:1"
         id="circle3398"
         cx="54.670475"
         cy="48.476505"
         inkscape:transform-center-x="2.1166668"
         inkscape:transform-center-y="0.63500171"
         r="3.3866665" />
      <circle
         r="3.3866665"
         inkscape:transform-center-y="0.63500171"
         inkscape:transform-center-x="2.1166668"
         cy="48.476505"
         cx="63.459682"
         id="circle3400"
         style="fill:#000000;fill-opacity:1" />
      <circle
         style="fill:#000000;fill-opacity:1"
         id="circle3402"
         cx="72.248886"
         cy="48.476505"
         inkscape:transform-center-x="2.1166668"
         inkscape:transform-center-y="0.63500171"
         r="3.3866665" />
    </g>
    <path
       inkscape:connector-curvature="0"
       style="fill:#ff0000;fill-opacity:1"
       d="m 38.350695,42.928279 c 4.595811,0.402088 8.688744,-1.81271 11.455848,-5.316158 l -5.011414,-10.162965 6.444573,-3.323457 1.592565,-0.835651 c 0.879212,-0.458303 1.61724,-0.872076 1.637962,-0.920317 0.02054,-0.04824 -0.591496,-0.826964 -1.36719,-1.740375 l -1.388568,-1.640941 -0.02278,-0.02725 -4.687165,-5.474933 6.02115,-12.66717445 C 44.269575,7.6848589 28.503844,16.539965 27.342899,29.809629 26.744832,36.645514 31.514934,42.330301 38.350822,42.928363 Z M 79.018023,29.696685 c 0.598067,6.835883 -4.172031,12.52067 -11.007919,13.118737 -4.59582,0.402088 -8.688743,-1.81272 -11.455856,-5.316163 l -6.726411,-9.136043 8.714859,-6.699863 -8.972935,-7.33757 3.765191,-13.62326495 C 62.091033,7.5683218 77.857078,16.427019 79.018023,29.696685 Z"
       id="path3338" />
    <g
       transform="matrix(0.01112797,0,0,-0.00774104,7.0691865,9.6267996)"
       id="g4">
      <path
         d="m 1664,576 q -152,236 -381,353 61,-104 61,-225 0,-185 -131.5,-316.5 Q 1081,256 896,256 711,256 579.5,387.5 448,519 448,704 448,825 509,929 280,812 128,576 261,371 461.5,249.5 662,128 896,128 1130,128 1330.5,249.5 1531,371 1664,576 Z M 944,960 q 0,20 -14,34 -14,14 -34,14 -125,0 -214.5,-89.5 Q 592,829 592,704 q 0,-20 14,-34 14,-14 34,-14 20,0 34,14 14,14 14,34 0,86 61,147 61,61 147,61 20,0 34,14 14,14 14,34 z m 848,-384 q 0,-34 -20,-69 Q 1632,277 1395.5,138.5 1159,0 896,0 633,0 396.5,139 160,278 20,507 0,542 0,576 q 0,34 20,69 140,229 376.5,368 236.5,139 499.5,139 263,0 499.5,-139 236.5,-139 376.5,-368 20,-35 20,-69 z"
         id="path6"
         inkscape:connector-curvature="0"
         style="fill:currentColor" />
    </g>
    <rect
       y="11.160813"
       x="10.530478"
       height="30.520247"
       width="12.921965"
       id="rect3355"
       style="fill:#000000;fill-rule:evenodd;stroke:#000000;stroke-width:0.3002111px;stroke-linecap:butt;stroke-linejoin:miter;stroke-opacity:1" />
  </g>
</svg>
