<?xml version="1.0" standalone="no"?>
<!DOCTYPE svg PUBLIC "-//W3C//DTD SVG 20010904//EN"
 "http://www.w3.org/TR/2001/REC-SVG-20010904/DTD/svg10.dtd">
<svg version="1.0" xmlns="http://www.w3.org/2000/svg"
 width="960.000000pt" height="540.000000pt" viewBox="0 0 960.000000 540.000000"
 preserveAspectRatio="xMidYMid meet">
<metadata>
Created by potrace 1.13, written by Peter Selinger 2001-2015
</metadata>
<g transform="translate(0.000000,540.000000) scale(0.100000,-0.100000)"
fill="#000000" stroke="none">
<path d="M5642 4853 c-79 -269 -165 -558 -191 -643 -27 -86 -51 -169 -55 -187
l-7 -31 476 -363 476 -364 -28 -23 c-15 -12 -71 -53 -123 -90 -52 -38 -194
-140 -315 -227 -121 -87 -273 -196 -338 -243 -65 -46 -117 -88 -115 -92 2 -5
65 -86 140 -182 75 -95 184 -234 243 -308 58 -74 161 -204 227 -288 214 -271
361 -398 594 -515 218 -109 485 -159 724 -137 352 33 646 169 861 398 371 395
415 943 124 1531 -137 277 -309 506 -579 776 -328 327 -642 572 -1356 1058
-102 69 -278 190 -392 269 -114 78 -211 144 -216 146 -4 1 -72 -217 -150 -485z"/>
<path d="M5650 5262 c-52 -38 -259 -180 -460 -317 -777 -529 -1085 -768 -1415
-1100 -263 -264 -438 -500 -570 -770 -183 -372 -234 -712 -155 -1029 43 -171
147 -358 280 -499 243 -259 586 -400 975 -401 278 0 526 74 762 227 94 60 239
183 294 248 l47 55 -92 174 c-50 96 -167 318 -260 493 -93 175 -169 325 -170
333 -1 11 87 58 289 155 541 260 725 353 725 364 0 13 -125 156 -445 505 -137
150 -271 296 -297 325 l-47 52 250 494 c138 271 282 553 320 626 38 73 68 133
66 133 -1 0 -45 -31 -97 -68z"/>
<path d="M1960 5305 c-218 -30 -396 -100 -601 -236 -182 -121 -433 -405 -453
-512 -10 -54 8 -106 66 -194 73 -108 280 -314 392 -387 188 -124 418 -212 616
-236 483 -58 982 166 1290 581 134 180 133 227 -7 417 -147 199 -387 385 -615
476 -127 52 -212 74 -341 91 -139 18 -217 18 -347 0z m218 -201 c27 -19 30
-74 5 -96 -10 -9 -42 -18 -72 -22 -74 -10 -112 -27 -166 -77 -57 -53 -84 -104
-92 -172 -7 -70 -25 -97 -65 -97 -47 0 -68 25 -68 80 0 203 189 394 395 399
22 1 51 -6 63 -15z m-605 -154 c-51 -107 -65 -254 -38 -385 47 -226 247 -421
480 -470 90 -19 148 -19 243 1 128 26 214 73 312 173 131 133 180 249 180 429
0 99 -18 190 -51 254 -10 20 -19 40 -19 43 0 29 189 -103 297 -208 93 -90 213
-238 213 -262 0 -25 -95 -143 -199 -245 -253 -251 -527 -370 -851 -370 -395 0
-743 185 -1008 537 l-55 74 48 70 c60 87 176 212 258 278 68 53 186 129 203
130 6 1 0 -21 -13 -49z"/>
<path d="M1846 3580 c-15 -5 -37 -17 -48 -27 -49 -43 -48 -12 -48 -1140 0
-1181 -5 -1101 70 -1151 34 -23 35 -23 332 -20 l298 3 37 38 38 37 3 1083 2
1084 -23 34 c-44 66 -60 69 -362 68 -148 0 -283 -5 -299 -9z"/>
<path d="M1740 585 l0 -545 70 0 70 0 0 219 0 219 213 5 c237 5 286 14 359 70
58 44 108 142 115 225 12 131 -48 254 -148 304 -76 39 -158 48 -436 48 l-243
0 0 -545z m552 405 c114 -32 166 -186 98 -295 -42 -68 -84 -79 -312 -83 l-198
-4 0 196 0 196 188 0 c103 0 204 -5 224 -10z"/>
<path d="M8080 939 l0 -191 -37 30 c-56 44 -108 62 -177 62 -76 0 -119 -12
-178 -49 -59 -38 -95 -86 -125 -168 -46 -128 -41 -288 12 -409 84 -190 337
-258 472 -128 l43 41 0 -44 0 -43 65 0 65 0 0 545 0 545 -70 0 -70 0 0 -191z
m-92 -241 c78 -52 119 -193 100 -346 -19 -158 -117 -243 -251 -218 -46 9 -110
66 -137 123 -32 67 -40 219 -15 308 18 69 58 123 110 150 47 25 143 16 193
-17z"/>
<path d="M2922 824 c-71 -20 -127 -56 -156 -102 -27 -42 -53 -109 -45 -117 3
-3 33 -8 66 -11 l60 -7 15 39 c31 77 81 104 192 104 55 0 82 -5 116 -22 52
-26 67 -53 72 -122 l3 -49 -52 -14 c-28 -7 -110 -21 -182 -32 -156 -22 -227
-52 -271 -113 -59 -81 -59 -199 1 -272 47 -57 100 -79 199 -84 105 -5 177 14
258 68 47 32 58 36 60 22 2 -9 8 -29 14 -44 10 -27 13 -28 79 -28 l68 0 -17
38 c-13 30 -17 87 -22 322 -5 281 -5 286 -30 330 -19 33 -40 53 -80 75 -51 27
-64 29 -175 32 -84 2 -136 -2 -173 -13z m318 -456 c0 -84 -14 -128 -52 -167
-91 -93 -257 -108 -322 -30 -53 62 -23 162 57 188 18 6 82 20 143 31 62 11
122 24 135 29 38 15 39 14 39 -51z"/>
<path d="M3720 825 c-161 -50 -214 -249 -95 -354 45 -39 77 -52 218 -91 61
-17 129 -38 151 -47 87 -38 75 -149 -21 -189 -48 -21 -160 -17 -210 6 -44 20
-79 64 -90 113 -5 27 -8 28 -42 23 -103 -18 -101 -15 -76 -86 23 -64 69 -116
133 -147 53 -26 66 -28 177 -28 105 0 127 3 172 24 62 27 125 92 143 145 20
61 9 147 -24 190 -37 49 -97 77 -272 128 -165 47 -194 65 -194 121 0 71 101
118 210 97 66 -12 96 -33 117 -82 l18 -40 60 7 c33 3 62 8 64 11 7 7 -17 77
-38 111 -25 40 -57 61 -128 85 -68 22 -206 23 -273 3z"/>
<path d="M4490 825 c-161 -50 -214 -249 -95 -354 45 -39 77 -52 218 -91 61
-17 129 -38 151 -47 87 -38 75 -149 -21 -189 -48 -21 -160 -17 -210 6 -44 20
-79 64 -90 113 -5 27 -8 28 -42 23 -103 -18 -101 -15 -76 -86 23 -64 69 -116
133 -147 53 -26 66 -28 177 -28 105 0 127 3 172 24 62 27 125 92 143 145 20
61 9 147 -24 190 -37 49 -97 77 -272 128 -165 47 -194 65 -194 121 0 71 101
118 210 97 66 -12 96 -33 117 -82 l18 -40 60 7 c33 3 62 8 64 11 7 7 -17 77
-38 111 -25 40 -57 61 -128 85 -68 22 -206 23 -273 3z"/>
<path d="M6420 826 c-19 -7 -48 -18 -63 -25 -16 -6 -52 -35 -81 -64 -70 -70
-97 -139 -104 -270 -10 -206 53 -339 196 -409 62 -31 73 -33 172 -33 93 0 112
3 161 26 141 66 209 192 209 385 0 175 -69 303 -197 366 -60 29 -78 33 -163
36 -62 1 -107 -3 -130 -12z m215 -115 c46 -20 87 -65 112 -120 13 -27 17 -66
17 -161 1 -111 -2 -130 -23 -173 -41 -83 -112 -127 -203 -127 -68 1 -126 27
-166 76 -43 52 -62 120 -62 224 0 48 7 109 15 136 18 62 67 121 119 145 53 24
139 24 191 0z"/>
<path d="M7283 820 c-18 -11 -46 -38 -63 -61 l-30 -42 0 56 0 57 -60 0 -60 0
0 -395 0 -395 64 0 65 0 4 258 c2 163 8 271 16 294 29 90 99 130 185 104 l46
-14 16 36 c32 76 30 87 -15 106 -56 22 -128 21 -168 -4z"/>
<path d="M5044 788 c7 -24 61 -202 121 -396 l108 -352 71 0 72 0 73 283 c41
155 77 288 81 296 5 8 12 -7 20 -40 12 -51 125 -484 136 -522 5 -15 16 -17 77
-15 l71 3 123 390 c67 215 123 391 123 393 0 1 -29 2 -64 2 -64 0 -65 0 -75
-32 -5 -18 -42 -141 -81 -273 -39 -132 -76 -256 -82 -275 -11 -33 -14 -22 -74
210 -35 135 -70 273 -80 308 l-16 62 -68 0 -67 0 -32 -112 c-17 -62 -54 -202
-83 -312 -37 -139 -54 -193 -60 -180 -4 11 -42 143 -83 294 -42 151 -78 283
-81 293 -4 14 -17 17 -74 17 l-69 0 13 -42z"/>
</g>
</svg>
